<svg width="24" height="24" viewBox="0 0 24 24" fill="none" xmlns="http://www.w3.org/2000/svg">
<path d="M4.80014 8.61002C4.9006 8.50167 5.02141 8.41416 5.15568 8.35251C5.28996 8.29085 5.43506 8.25625 5.58271 8.25068C5.73036 8.24511 5.87766 8.26867 6.0162 8.32004C6.15474 8.3714 6.28181 8.44955 6.39014 8.55002L12.0001 13.8405L17.6101 8.55002C17.7185 8.44956 17.8455 8.37142 17.9841 8.32007C18.1226 8.26871 18.2699 8.24515 18.4176 8.25072C18.5652 8.25629 18.7103 8.29089 18.8446 8.35254C18.9789 8.41419 19.0997 8.50168 19.2001 8.61002C19.3006 8.71836 19.3787 8.84543 19.4301 8.98397C19.4814 9.1225 19.505 9.2698 19.4994 9.41745C19.4939 9.56509 19.4593 9.71019 19.3976 9.84447C19.336 9.97874 19.2485 10.0996 19.1401 10.2L12.7651 16.2C12.5571 16.393 12.2839 16.5002 12.0001 16.5002C11.7164 16.5002 11.4432 16.393 11.2351 16.2L4.86014 10.2C4.75179 10.0996 4.66429 9.97875 4.60263 9.84448C4.54097 9.7102 4.50637 9.5651 4.5008 9.41745C4.49523 9.2698 4.5188 9.1225 4.57016 8.98396C4.62152 8.84542 4.69967 8.71835 4.80014 8.61002Z" fill="#1C4D99"/>
</svg>
